# xmcd
# Track frame offsets:
# 150
# 15310
# 29750
# 45192
# 59415
# 68335
# 82902
# 94905
# 102967
# 119415
# 134870
# 144610
# 158977
#
# Disc length: 2239 seconds
# Revision: 0
# Processed by: cddbd v1.4PL0 Copyright (c) Steve Scherf et al.
# Submitted via: VisiTrax 2.9.5.180 - For more info visit www.synapsa.com
#
DISCID=ac08bd0d
DTITLE=Veli-Matti J‰rvenp‰‰ - Pitk‰ hehku
DYEAR=1995
DGENRE=
TTITLE0=Viva Seguin
TTITLE1=Naisen syyt‰ kaikki t‰‰ on
TTITLE2=Anneli
TTITLE3=Unohtuneet
TTITLE4=Reel Lajoie
TTITLE5=Urku auki
TTITLE6=Pitk‰ hehku -bolero
TTITLE7=Parturin riili
TTITLE8=S‰‰st‰ kyyneleet
TTITLE9=Yhdest‰ puusta
TTITLE10=Pimpan polkka
TTITLE11=Punasiipi part 1
TTITLE12=Punasiipi part 2
EXTD=
EXTT0=
EXTT1=
EXTT2=
EXTT3=
EXTT4=
EXTT5=
EXTT6=
EXTT7=
EXTT8=
EXTT9=
EXTT10=
EXTT11=
EXTT12=
PLAYORDER=
